# xmcd
#
# Track frame offsets:
# 150
# 24681
# 44207
# 56360
# 73613
# 92222
# 108848
# 126344
# 152190
# 178143
#
# Disc length: 2586 seconds
#
# Revision: 0
# Processed by: cddbd v1.5.2PL0 Copyright (c) Steve Scherf et al.
# Submitted via: CoinsHifi v1.9c contact@coinshifi.com
#
DISCID=8f0a180a
DTITLE=Marc-Albert Roullier - Autres Routes
DYEAR=2000
DGENRE=Rock
TTITLE0=Running song
TTITLE1=Diagonale
TTITLE2=S.O.S
TTITLE3=Fièvres
TTITLE4=S'endormir auprès d'elle
TTITLE5=Reggae Météo
TTITLE6=Esméra@lda
TTITLE7=MagazineStar
TTITLE8=Love Computer
TTITLE9=Finisher
EXTD=
EXTT0=
EXTT1=
EXTT2=
EXTT3=
EXTT4=
EXTT5=
EXTT6=
EXTT7=
EXTT8=
EXTT9=
PLAYORDER=
